Hebrik-Italic.ufo
<glyph name="hiriqhebrew" format="1">
  <advance width="0"/>
  <unicode hex="05B4"/>
  <outline>
    <contour>
      <point x="-15" y="-149" type="line" smooth="yes"/>
      <point x="-2" y="-149"/>
      <point x="9" y="-140"/>
      <point x="12" y="-127" type="curve" smooth="yes"/>
      <point x="18" y="-98" type="line" smooth="yes"/>
      <point x="20" y="-85"/>
      <point x="13" y="-76"/>
      <point x="0" y="-76" type="curve" smooth="yes"/>
      <point x="-31" y="-76" type="line" smooth="yes"/>
      <point x="-44" y="-76"/>
      <point x="-55" y="-85"/>
      <point x="-57" y="-98" type="curve" smooth="yes"/>
      <point x="-64" y="-127" type="line" smooth="yes"/>
      <point x="-67" y="-140"/>
      <point x="-60" y="-149"/>
      <point x="-47" y="-149" type="curve" smooth="yes"/>
    </contour>
    <contour>
      <point x="0" y="0" type="move" name="_bottom"/>
    </contour>
  </outline>
</glyph>
<glyph name="tserehebrew" format="1">
  <advance width="0"/>
  <unicode hex="05B5"/>
  <outline>
    <contour>
      <point x="-78" y="-149" type="line" smooth="yes"/>
      <point x="-65" y="-149"/>
      <point x="-54" y="-140"/>
      <point x="-51" y="-127" type="curve" smooth="yes"/>
      <point x="-45" y="-98" type="line" smooth="yes"/>
      <point x="-43" y="-85"/>
      <point x="-50" y="-76"/>
      <point x="-63" y="-76" type="curve" smooth="yes"/>
      <point x="-94" y="-76" type="line" smooth="yes"/>
      <point x="-107" y="-76"/>
      <point x="-118" y="-85"/>
      <point x="-120" y="-98" type="curve" smooth="yes"/>
      <point x="-127" y="-127" type="line" smooth="yes"/>
      <point x="-130" y="-140"/>
      <point x="-123" y="-149"/>
      <point x="-110" y="-149" type="curve" smooth="yes"/>
    </contour>
    <contour>
      <point x="50" y="-149" type="line" smooth="yes"/>
      <point x="63" y="-149"/>
      <point x="74" y="-140"/>
      <point x="77" y="-127" type="curve" smooth="yes"/>
      <point x="83" y="-98" type="line" smooth="yes"/>
      <point x="86" y="-85"/>
      <point x="78" y="-76"/>
      <point x="65" y="-76" type="curve" smooth="yes"/>
      <point x="34" y="-76" type="line" smooth="yes"/>
      <point x="21" y="-76"/>
      <point x="10" y="-85"/>
      <point x="8" y="-98" type="curve" smooth="yes"/>
      <point x="2" y="-127" type="line" smooth="yes"/>
      <point x="-1" y="-140"/>
      <point x="6" y="-149"/>
      <point x="19" y="-149" type="curve" smooth="yes"/>
    </contour>
    <contour>
      <point x="1" y="0" type="move" name="_bottom"/>
    </contour>
  </outline>
</glyph>
<glyph name="qamatshebrew" format="1">
  <advance width="0"/>
  <unicode hex="05B8"/>
  <outline>
    <contour>
      <point x="77" y="-137" type="line" smooth="yes"/>
      <point x="90" y="-137"/>
      <point x="101" y="-128"/>
      <point x="104" y="-115" type="curve" smooth="yes"/>
      <point x="108" y="-98" type="line" smooth="yes"/>
      <point x="110" y="-85"/>
      <point x="103" y="-76"/>
      <point x="90" y="-76" type="curve" smooth="yes"/>
      <point x="-118" y="-76" type="line" smooth="yes"/>
      <point x="-131" y="-76"/>
      <point x="-142" y="-85"/>
      <point x="-145" y="-98" type="curve" smooth="yes"/>
      <point x="-148" y="-115" type="line" smooth="yes"/>
      <point x="-151" y="-128"/>
      <point x="-144" y="-137"/>
      <point x="-131" y="-137" type="curve" smooth="yes"/>
    </contour>
    <contour>
      <point x="-45" y="-245" type="line" smooth="yes"/>
      <point x="-32" y="-245"/>
      <point x="-21" y="-236"/>
      <point x="-18" y="-223" type="curve" smooth="yes"/>
      <point x="1" y="-134" type="line" smooth="yes"/>
      <point x="5" y="-111"/>
      <point x="-4" y="-112"/>
      <point x="-17" y="-112" type="curve" smooth="yes"/>
      <point x="-31" y="-112" type="line" smooth="yes"/>
      <point x="-44" y="-112"/>
      <point x="-53" y="-111"/>
      <point x="-57" y="-134" type="curve" smooth="yes"/>
      <point x="-76" y="-223" type="line" smooth="yes"/>
      <point x="-79" y="-236"/>
      <point x="-72" y="-245"/>
      <point x="-59" y="-245" type="curve" smooth="yes"/>
    </contour>
    <contour>
      <point x="2" y="0" type="move" name="_bottom"/>
    </contour>
  </outline>
</glyph>
<glyph name="qubutshebrew" format="1">
  <advance width="0"/>
  <unicode hex="05BB"/>
  <outline>
    <contour>
      <point x="72" y="-265" type="line" smooth="yes"/>
      <point x="85" y="-265"/>
      <point x="96" y="-256"/>
      <point x="99" y="-243" type="curve" smooth="yes"/>
      <point x="105" y="-214" type="line" smooth="yes"/>
      <point x="108" y="-201"/>
      <point x="101" y="-192"/>
      <point x="88" y="-192" type="curve" smooth="yes"/>
      <point x="57" y="-192" type="line" smooth="yes"/>
      <point x="44" y="-192"/>
      <point x="33" y="-201"/>
      <point x="30" y="-214" type="curve" smooth="yes"/>
      <point x="24" y="-243" type="line" smooth="yes"/>
      <point x="21" y="-256"/>
      <point x="28" y="-265"/>
      <point x="41" y="-265" type="curve" smooth="yes"/>
    </contour>
    <contour>
      <point x="-61" y="-146" type="line" smooth="yes"/>
      <point x="-48" y="-146"/>
      <point x="-37" y="-137"/>
      <point x="-34" y="-124" type="curve" smooth="yes"/>
      <point x="-28" y="-94" type="line" smooth="yes"/>
      <point x="-26" y="-81"/>
      <point x="-33" y="-72"/>
      <point x="-46" y="-72" type="curve" smooth="yes"/>
      <point x="-77" y="-72" type="line" smooth="yes"/>
      <point x="-90" y="-72"/>
      <point x="-101" y="-81"/>
      <point x="-103" y="-94" type="curve" smooth="yes"/>
      <point x="-110" y="-124" type="line" smooth="yes"/>
      <point x="-113" y="-137"/>
      <point x="-106" y="-146"/>
      <point x="-93" y="-146" type="curve" smooth="yes"/>
    </contour>
    <contour>
      <point x="5" y="-207" type="line" smooth="yes"/>
      <point x="18" y="-207"/>
      <point x="29" y="-198"/>
      <point x="32" y="-185" type="curve" smooth="yes"/>
      <point x="39" y="-155" type="line" smooth="yes"/>
      <point x="41" y="-142"/>
      <point x="34" y="-133"/>
      <point x="21" y="-133" type="curve" smooth="yes"/>
      <point x="-11" y="-133" type="line" smooth="yes"/>
      <point x="-24" y="-133"/>
      <point x="-34" y="-142"/>
      <point x="-37" y="-155" type="curve" smooth="yes"/>
      <point x="-43" y="-185" type="line" smooth="yes"/>
      <point x="-46" y="-198"/>
      <point x="-39" y="-207"/>
      <point x="-26" y="-207" type="curve" smooth="yes"/>
    </contour>
    <contour>
      <point x="0" y="0" type="move" name="_bottom"/>
    </contour>
  </outline>
</glyph>
<glyph name="shindothebrew" format="1">
  <advance width="0"/>
  <unicode hex="05C1"/>
  <outline>
    <contour>
      <point x="52" y="526" type="line" smooth="yes"/>
      <point x="65" y="526"/>
      <point x="76" y="535"/>
      <point x="79" y="548" type="curve" smooth="yes"/>
      <point x="85" y="578" type="line" smooth="yes"/>
      <point x="88" y="591"/>
      <point x="81" y="600"/>
      <point x="68" y="600" type="curve" smooth="yes"/>
      <point x="38" y="600" type="line" smooth="yes"/>
      <point x="25" y="600"/>
      <point x="14" y="591"/>
      <point x="11" y="578" type="curve" smooth="yes"/>
      <point x="5" y="548" type="line" smooth="yes"/>
      <point x="2" y="535"/>
      <point x="9" y="526"/>
      <point x="22" y="526" type="curve" smooth="yes"/>
    </contour>
    <contour>
      <point x="111" y="415" type="move" name="_topright"/>
    </contour>
  </outline>
</glyph>
<glyph name="sindothebrew" format="1">
  <advance width="0"/>
  <unicode hex="05C2"/>
  <outline>
    <contour>
      <point x="151" y="526" type="line" smooth="yes"/>
      <point x="164" y="526"/>
      <point x="175" y="535"/>
      <point x="177" y="548" type="curve" smooth="yes"/>
      <point x="184" y="578" type="line" smooth="yes"/>
      <point x="187" y="591"/>
      <point x="180" y="600"/>
      <point x="167" y="600" type="curve" smooth="yes"/>
      <point x="137" y="600" type="line" smooth="yes"/>
      <point x="124" y="600"/>
      <point x="113" y="591"/>
      <point x="110" y="578" type="curve" smooth="yes"/>
      <point x="104" y="548" type="line" smooth="yes"/>
      <point x="101" y="535"/>
      <point x="108" y="526"/>
      <point x="121" y="526" type="curve" smooth="yes"/>
    </contour>
    <contour>
      <point x="18" y="415" type="move" name="_topleft"/>
    </contour>
  </outline>
</glyph>
<glyph name="alefhebrew" format="1">
  <advance width="586"/>
  <unicode hex="05D0"/>
  <outline>
    <contour>
      <point x="462" y="0" type="line" smooth="yes"/>
      <point x="473" y="0"/>
      <point x="484" y="9"/>
      <point x="486" y="20" type="curve" smooth="yes"/>
      <point x="487" y="25"/>
      <point x="488" y="31"/>
      <point x="483" y="39" type="curve" smooth="yes"/>
      <point x="225" y="554" type="line" smooth="yes"/>
      <point x="221" y="561"/>
      <point x="215" y="571"/>
      <point x="200" y="571" type="curve" smooth="yes"/>
      <point x="156" y="571" type="line" smooth="yes"/>
      <point x="145" y="571"/>
      <point x="134" y="562"/>
      <point x="132" y="551" type="curve" smooth="yes"/>
      <point x="131" y="546"/>
      <point x="132" y="540"/>
      <point x="135" y="532" type="curve" smooth="yes"/>
      <point x="392" y="16" type="line" smooth="yes"/>
      <point x="397" y="10"/>
      <point x="402" y="0"/>
      <point x="417" y="0" type="curve" smooth="yes"/>
    </contour>
    <contour>
      <point x="64" y="0" type="line" smooth="yes"/>
      <point x="77" y="0"/>
      <point x="89" y="10"/>
      <point x="92" y="23" type="curve" smooth="yes"/>
      <point x="123" y="170" type="line" smooth="yes"/>
      <point x="136" y="229"/>
      <point x="163" y="297"/>
      <point x="247" y="344" type="curve"/>
      <point x="215" y="412" type="line"/>
      <point x="95" y="347"/>
      <point x="60" y="264"/>
      <point x="41" y="174" type="curve" smooth="yes"/>
      <point x="9" y="23" type="line" smooth="yes"/>
      <point x="6" y="10"/>
      <point x="14" y="0"/>
      <point x="27" y="0" type="curve" smooth="yes"/>
    </contour>
    <contour>
      <point x="514" y="246"/>
      <point x="546" y="319"/>
      <point x="564" y="405" type="curve" smooth="yes"/>
      <point x="594" y="548" type="line" smooth="yes"/>
      <point x="597" y="561"/>
      <point x="590" y="571"/>
      <point x="577" y="571" type="curve" smooth="yes"/>
      <point x="538" y="571" type="line" smooth="yes"/>
      <point x="524" y="571"/>
      <point x="513" y="562"/>
      <point x="510" y="548" type="curve" smooth="yes"/>
      <point x="481" y="409" type="line" smooth="yes"/>
      <point x="468" y="348"/>
      <point x="455" y="297"/>
      <point x="345" y="251" type="curve"/>
      <point x="372" y="181" type="line"/>
    </contour>
    <contour>
      <point x="216" y="127" type="move" name="center"/>
    </contour>
    <contour>
      <point x="353" y="520" type="move" name="top"/>
    </contour>
    <contour>
      <point x="-25" y="0" type="move" name="bottomleft"/>
    </contour>
    <contour>
      <point x="86" y="520" type="move" name="topleft"/>
    </contour>
    <contour>
      <point x="242" y="0" type="move" name="bottom"/>
    </contour>
  </outline>
</glyph>
<glyph name="zayinhebrew" format="1">
  <advance width="394"/>
  <unicode hex="05D6"/>
  <outline>
    <contour>
      <point x="153" y="0" type="line" smooth="yes"/>
      <point x="166" y="0"/>
      <point x="179" y="9"/>
      <point x="182" y="22" type="curve"/>
      <point x="257" y="375" type="line" smooth="yes"/>
      <point x="272" y="449"/>
      <point x="307" y="506"/>
      <point x="341" y="506" type="curve"/>
      <point x="245" y="506" type="line"/>
      <point x="218" y="506"/>
      <point x="187" y="460"/>
      <point x="170" y="381" type="curve" smooth="yes"/>
      <point x="94" y="22" type="line" smooth="yes"/>
      <point x="91" y="9"/>
      <point x="98" y="0"/>
      <point x="111" y="0" type="curve" smooth="yes"/>
    </contour>
    <contour>
      <point x="372" y="494" type="line" smooth="yes"/>
      <point x="385" y="494"/>
      <point x="397" y="503"/>
      <point x="400" y="516" type="curve" smooth="yes"/>
      <point x="406" y="548" type="line" smooth="yes"/>
      <point x="409" y="562"/>
      <point x="401" y="571"/>
      <point x="388" y="571" type="curve" smooth="yes"/>
      <point x="148" y="571" type="line" smooth="yes"/>
      <point x="135" y="571"/>
      <point x="123" y="562"/>
      <point x="120" y="548" type="curve" smooth="yes"/>
      <point x="114" y="516" type="line" smooth="yes"/>
      <point x="111" y="503"/>
      <point x="119" y="494"/>
      <point x="132" y="494" type="curve" smooth="yes"/>
    </contour>
    <contour>
      <point x="71" y="260" type="move" name="center"/>
    </contour>
    <contour>
      <point x="267" y="520" type="move" name="top"/>
    </contour>
    <contour>
      <point x="11" y="0" type="move" name="bottomleft"/>
    </contour>
    <contour>
      <point x="122" y="520" type="move" name="topleft"/>
    </contour>
    <contour>
      <point x="141" y="0" type="move" name="bottom"/>
    </contour>
  </outline>
</glyph>
<glyph name="finalkafhebrew" format="1">
  <advance width="551"/>
  <unicode hex="05DA"/>
  <outline>
    <contour>
      <point x="320" y="-101" type="line" smooth="yes"/>
      <point x="317" y="-115"/>
      <point x="325" y="-124"/>
      <point x="338" y="-124" type="curve" smooth="yes"/>
      <point x="381" y="-124" type="line" smooth="yes"/>
      <point x="394" y="-124"/>
      <point x="405" y="-115"/>
      <point x="408" y="-101" type="curve" smooth="yes"/>
      <point x="499" y="327" type="line" smooth="yes"/>
      <point x="534" y="493"/>
      <point x="468" y="571"/>
      <point x="295" y="571" type="curve" smooth="yes"/>
      <point x="144" y="571" type="line"/>
      <point x="131" y="571"/>
      <point x="119" y="562"/>
      <point x="116" y="548" type="curve" smooth="yes"/>
      <point x="110" y="516" type="line" smooth="yes"/>
      <point x="107" y="503"/>
      <point x="115" y="494"/>
      <point x="128" y="494" type="curve" smooth="yes"/>
      <point x="274" y="494" type="line" smooth="yes"/>
      <point x="395" y="494"/>
      <point x="432" y="430"/>
      <point x="409" y="322" type="curve" smooth="yes"/>
    </contour>
    <contour>
      <point x="240" y="260" type="move" name="center"/>
    </contour>
    <contour>
      <point x="351" y="520" type="move" name="top"/>
    </contour>
    <contour>
      <point x="7" y="0" type="move" name="bottomleft"/>
    </contour>
    <contour>
      <point x="118" y="520" type="move" name="topleft"/>
    </contour>
    <contour>
      <point x="238" y="340" type="move" name="bottom"/>
    </contour>
  </outline>
</glyph>
<glyph name="memhebrew" format="1">
  <advance width="630"/>
  <unicode hex="05DE"/>
  <outline>
    <contour>
      <point x="485" y="0" type="line" smooth="yes"/>
      <point x="499" y="0"/>
      <point x="510" y="10"/>
      <point x="513" y="23" type="curve" smooth="yes"/>
      <point x="578" y="327" type="line" smooth="yes"/>
      <point x="611" y="486"/>
      <point x="541" y="578"/>
      <point x="417" y="578" type="curve" smooth="yes"/>
      <point x="304" y="579"/>
      <point x="210" y="485"/>
      <point x="165" y="398" type="curve"/>
      <point x="161" y="326" type="line"/>
      <point x="207" y="411"/>
      <point x="288" y="500"/>
      <point x="390" y="499" type="curve" smooth="yes"/>
      <point x="468" y="499"/>
      <point x="511" y="430"/>
      <point x="488" y="322" type="curve" smooth="yes"/>
      <point x="437" y="78" type="line"/>
      <point x="244" y="78" type="line" smooth="yes"/>
      <point x="231" y="78"/>
      <point x="219" y="68"/>
      <point x="217" y="55" type="curve" smooth="yes"/>
      <point x="210" y="23" type="line" smooth="yes"/>
      <point x="207" y="10"/>
      <point x="214" y="0"/>
      <point x="227" y="0" type="curve" smooth="yes"/>
    </contour>
    <contour>
      <point x="67" y="0" type="line" smooth="yes"/>
      <point x="80" y="0"/>
      <point x="93" y="10"/>
      <point x="97" y="24" type="curve"/>
      <point x="261" y="453" type="line" smooth="yes"/>
      <point x="268" y="466"/>
      <point x="260" y="477"/>
      <point x="248" y="478" type="curve" smooth="yes"/>
      <point x="207" y="480" type="line" smooth="yes"/>
      <point x="194" y="482"/>
      <point x="183" y="474"/>
      <point x="177" y="461" type="curve" smooth="yes"/>
      <point x="10" y="24" type="line" smooth="yes"/>
      <point x="5" y="10"/>
      <point x="12" y="0"/>
      <point x="25" y="0" type="curve" smooth="yes"/>
    </contour>
    <contour>
      <point x="150" y="571"/>
      <point x="135" y="560"/>
      <point x="138" y="547" type="curve" smooth="yes"/>
      <point x="162" y="428" type="line" smooth="yes"/>
      <point x="164" y="414"/>
      <point x="170" y="406"/>
      <point x="183" y="408" type="curve" smooth="yes"/>
      <point x="227" y="411" type="line" smooth="yes"/>
      <point x="241" y="412"/>
      <point x="252" y="423"/>
      <point x="251" y="435" type="curve" smooth="yes"/>
      <point x="230" y="547" type="line" smooth="yes"/>
      <point x="227" y="560"/>
      <point x="222" y="571"/>
      <point x="209" y="571" type="curve" smooth="yes"/>
      <point x="162" y="571" type="line" smooth="yes"/>
    </contour>
    <contour>
      <point x="323" y="260" type="move" name="center"/>
    </contour>
    <contour>
      <point x="375" y="520" type="move" name="top"/>
    </contour>
    <contour>
      <point x="-32" y="0" type="move" name="bottomleft"/>
    </contour>
    <contour>
      <point x="79" y="520" type="move" name="topleft"/>
    </contour>
    <contour>
      <point x="277" y="0" type="move" name="bottom"/>
    </contour>
  </outline>
</glyph>
<glyph name="finalnunhebrew" format="1">
  <advance width="244"/>
  <unicode hex="05DF"/>
  <outline>
    <contour>
      <point x="67" y="-124" type="line" smooth="yes"/>
      <point x="81" y="-124"/>
      <point x="92" y="-115"/>
      <point x="95" y="-101" type="curve"/>
      <point x="232" y="548" type="line" smooth="yes"/>
      <point x="235" y="562"/>
      <point x="228" y="571"/>
      <point x="214" y="571" type="curve" smooth="yes"/>
      <point x="172" y="571" type="line" smooth="yes"/>
      <point x="159" y="571"/>
      <point x="147" y="562"/>
      <point x="144" y="548" type="curve" smooth="yes"/>
      <point x="7" y="-101" type="line" smooth="yes"/>
      <point x="4" y="-115"/>
      <point x="12" y="-124"/>
      <point x="25" y="-124" type="curve" smooth="yes"/>
    </contour>
    <contour>
      <point x="127" y="260" type="move" name="center"/>
    </contour>
    <contour>
      <point x="183" y="520" type="move" name="top"/>
    </contour>
    <contour>
      <point x="-30" y="0" type="move" name="bottomleft"/>
    </contour>
    <contour>
      <point x="81" y="520" type="move" name="topleft"/>
    </contour>
    <contour>
      <point x="72" y="0" type="move" name="bottom"/>
    </contour>
  </outline>
</glyph>
<glyph name="samekhhebrew" format="1">
  <advance width="637"/>
  <unicode hex="05E1"/>
  <outline>
    <contour>
      <point x="452" y="-10"/>
      <point x="543" y="73"/>
      <point x="579" y="227" type="curve" smooth="yes"/>
      <point x="585" y="247"/>
      <point x="599" y="315"/>
      <point x="602" y="335" type="curve" smooth="yes"/>
      <point x="629" y="489"/>
      <point x="584" y="571"/>
      <point x="406" y="571" type="curve"/>
      <point x="166" y="571" type="line" smooth="yes"/>
      <point x="153" y="571"/>
      <point x="141" y="562"/>
      <point x="138" y="548" type="curve" smooth="yes"/>
      <point x="73" y="240" type="line" smooth="yes"/>
      <point x="39" y="81"/>
      <point x="100" y="-10"/>
      <point x="266" y="-10" type="curve" smooth="yes"/>
    </contour>
    <contour>
      <point x="174" y="69"/>
      <point x="134" y="131"/>
      <point x="157" y="240" type="curve" smooth="yes"/>
      <point x="211" y="494" type="line"/>
      <point x="385" y="494" type="line" smooth="yes"/>
      <point x="484" y="494"/>
      <point x="535" y="439"/>
      <point x="515" y="330" type="curve" smooth="yes"/>
      <point x="512" y="310"/>
      <point x="500" y="252"/>
      <point x="494" y="232" type="curve" smooth="yes"/>
      <point x="468" y="123"/>
      <point x="410" y="69"/>
      <point x="282" y="69" type="curve" smooth="yes"/>
    </contour>
    <contour>
      <point x="322" y="260" type="move" name="center"/>
    </contour>
    <contour>
      <point x="376" y="520" type="move" name="top"/>
    </contour>
    <contour>
      <point x="-30" y="0" type="move" name="bottomleft"/>
    </contour>
    <contour>
      <point x="81" y="520" type="move" name="topleft"/>
    </contour>
    <contour>
      <point x="269" y="0" type="move" name="bottom"/>
    </contour>
  </outline>
</glyph>
<glyph name="ayinhebrew" format="1">
  <advance width="576"/>
  <unicode hex="05E2"/>
  <outline>
    <contour>
      <point x="244" y="14" type="line" smooth="yes"/>
      <point x="383" y="53"/>
      <point x="487" y="155"/>
      <point x="512" y="272" type="curve" smooth="yes"/>
      <point x="570" y="548" type="line" smooth="yes"/>
      <point x="573" y="562"/>
      <point x="566" y="571"/>
      <point x="552" y="571" type="curve" smooth="yes"/>
      <point x="510" y="571" type="line" smooth="yes"/>
      <point x="497" y="571"/>
      <point x="485" y="562"/>
      <point x="482" y="548" type="curve" smooth="yes"/>
      <point x="430" y="299" type="line" smooth="yes"/>
      <point x="409" y="204"/>
      <point x="364" y="130"/>
      <point x="241" y="91" type="curve" smooth="yes"/>
      <point x="15" y="21" type="line" smooth="yes"/>
      <point x="3" y="17"/>
      <point x="-4" y="6"/>
      <point x="-6" y="-7" type="curve" smooth="yes"/>
      <point x="-13" y="-38" type="line" smooth="yes"/>
      <point x="-16" y="-52"/>
      <point x="-3" y="-60"/>
      <point x="11" y="-55" type="curve" smooth="yes"/>
    </contour>
    <contour>
      <point x="251" y="47" type="line"/>
      <point x="214" y="556" type="line" smooth="yes"/>
      <point x="214" y="564"/>
      <point x="207" y="571"/>
      <point x="194" y="571" type="curve" smooth="yes"/>
      <point x="148" y="571" type="line" smooth="yes"/>
      <point x="137" y="571"/>
      <point x="126" y="562"/>
      <point x="124" y="551" type="curve" smooth="yes"/>
      <point x="123" y="546"/>
      <point x="124" y="541"/>
      <point x="125" y="531" type="curve" smooth="yes"/>
      <point x="158" y="24" type="line"/>
    </contour>
    <contour>
      <point x="356" y="260" type="move" name="center"/>
    </contour>
    <contour>
      <point x="412" y="520" type="move" name="top"/>
    </contour>
    <contour>
      <point x="-30" y="0" type="move" name="bottomleft"/>
    </contour>
    <contour>
      <point x="81" y="520" type="move" name="topleft"/>
    </contour>
    <contour>
      <point x="265" y="0" type="move" name="bottom"/>
    </contour>
  </outline>
</glyph>
<glyph name="finaltsadihebrew" format="1">
  <advance width="496"/>
  <unicode hex="05E5"/>
  <outline>
    <contour>
      <point x="282" y="-124" type="line" smooth="yes"/>
      <point x="293" y="-124"/>
      <point x="304" y="-115"/>
      <point x="306" y="-104" type="curve" smooth="yes"/>
      <point x="307" y="-99"/>
      <point x="306" y="-95"/>
      <point x="305" y="-85" type="curve" smooth="yes"/>
      <point x="253" y="197" type="line"/>
      <point x="381" y="220"/>
      <point x="472" y="305"/>
      <point x="501" y="443" type="curve" smooth="yes"/>
      <point x="523" y="548" type="line" smooth="yes"/>
      <point x="526" y="561"/>
      <point x="519" y="571"/>
      <point x="505" y="571" type="curve" smooth="yes"/>
      <point x="466" y="571" type="line" smooth="yes"/>
      <point x="453" y="571"/>
      <point x="441" y="562"/>
      <point x="438" y="548" type="curve" smooth="yes"/>
      <point x="417" y="449" type="line" smooth="yes"/>
      <point x="396" y="348"/>
      <point x="339" y="286"/>
      <point x="238" y="275" type="curve"/>
      <point x="188" y="547" type="line"/>
      <point x="186" y="563"/>
      <point x="179" y="571"/>
      <point x="165" y="571" type="curve" smooth="yes"/>
      <point x="121" y="571" type="line" smooth="yes"/>
      <point x="110" y="571"/>
      <point x="99" y="562"/>
      <point x="97" y="551" type="curve" smooth="yes"/>
      <point x="96" y="546"/>
      <point x="97" y="542"/>
      <point x="98" y="532" type="curve" smooth="yes"/>
      <point x="214" y="-108" type="line" smooth="yes"/>
      <point x="216" y="-116"/>
      <point x="222" y="-124"/>
      <point x="236" y="-124" type="curve" smooth="yes"/>
    </contour>
    <contour>
      <point x="253" y="260" type="move" name="center"/>
    </contour>
    <contour>
      <point x="309" y="520" type="move" name="top"/>
    </contour>
    <contour>
      <point x="-30" y="0" type="move" name="bottomleft"/>
    </contour>
    <contour>
      <point x="81" y="520" type="move" name="topleft"/>
    </contour>
    <contour>
      <point x="198" y="0" type="move" name="bottom"/>
    </contour>
  </outline>
</glyph>
<glyph name="qofhebrew" format="1">
  <advance width="624"/>
  <unicode hex="05E7"/>
  <outline>
    <contour>
      <point x="51" y="-191" type="line" smooth="yes"/>
      <point x="65" y="-191"/>
      <point x="76" y="-182"/>
      <point x="79" y="-168" type="curve"/>
      <point x="195" y="376" type="line" smooth="yes"/>
      <point x="198" y="389"/>
      <point x="191" y="399"/>
      <point x="177" y="399" type="curve" smooth="yes"/>
      <point x="136" y="399" type="line" smooth="yes"/>
      <point x="123" y="399"/>
      <point x="111" y="389"/>
      <point x="108" y="376" type="curve" smooth="yes"/>
      <point x="-8" y="-168" type="line" smooth="yes"/>
      <point x="-11" y="-182"/>
      <point x="-3" y="-191"/>
      <point x="10" y="-191" type="curve" smooth="yes"/>
    </contour>
    <contour>
      <point x="284" y="5" type="line" smooth="yes"/>
      <point x="408" y="44"/>
      <point x="536" y="124"/>
      <point x="576" y="310" type="curve" smooth="yes"/>
      <point x="616" y="498"/>
      <point x="566" y="571"/>
      <point x="385" y="571" type="curve" smooth="yes"/>
      <point x="172" y="571" type="line"/>
      <point x="159" y="571"/>
      <point x="147" y="562"/>
      <point x="145" y="549" type="curve"/>
      <point x="137" y="515" type="line"/>
      <point x="134" y="501"/>
      <point x="143" y="492"/>
      <point x="156" y="492" type="curve"/>
      <point x="356" y="492" type="line"/>
      <point x="483" y="492"/>
      <point x="515" y="446"/>
      <point x="487" y="314" type="curve" smooth="yes"/>
      <point x="458" y="177"/>
      <point x="385" y="126"/>
      <point x="297" y="95" type="curve" smooth="yes"/>
      <point x="255" y="80" type="line" smooth="yes"/>
      <point x="240" y="74"/>
      <point x="229" y="63"/>
      <point x="227" y="53" type="curve" smooth="yes"/>
      <point x="218" y="9" type="line" smooth="yes"/>
      <point x="215" y="-6"/>
      <point x="226" y="-13"/>
      <point x="239" y="-9" type="curve" smooth="yes"/>
    </contour>
    <contour>
      <point x="292" y="260" type="move" name="center"/>
    </contour>
    <contour>
      <point x="348" y="520" type="move" name="top"/>
    </contour>
    <contour>
      <point x="-30" y="0" type="move" name="bottomleft"/>
    </contour>
    <contour>
      <point x="81" y="520" type="move" name="topleft"/>
    </contour>
    <contour>
      <point x="334" y="0" type="move" name="bottom"/>
    </contour>
  </outline>
</glyph>
<glyph name="tavhebrew" format="1">
  <advance width="658"/>
  <unicode hex="05EA"/>
  <outline>
    <contour>
      <point x="382" y="494" type="line" smooth="yes"/>
      <point x="502" y="494"/>
      <point x="539" y="430"/>
      <point x="516" y="322" type="curve" smooth="yes"/>
      <point x="453" y="23" type="line" smooth="yes"/>
      <point x="450" y="9"/>
      <point x="458" y="0"/>
      <point x="471" y="0" type="curve" smooth="yes"/>
      <point x="513" y="0" type="line" smooth="yes"/>
      <point x="526" y="0"/>
      <point x="538" y="10"/>
      <point x="541" y="23" type="curve" smooth="yes"/>
      <point x="606" y="327" type="line" smooth="yes"/>
      <point x="639" y="486"/>
      <point x="575" y="571"/>
      <point x="403" y="571" type="curve" smooth="yes"/>
      <point x="184" y="571" type="line" smooth="yes"/>
      <point x="171" y="571"/>
      <point x="159" y="562"/>
      <point x="156" y="548" type="curve" smooth="yes"/>
      <point x="150" y="516" type="line" smooth="yes"/>
      <point x="147" y="503"/>
      <point x="155" y="494"/>
      <point x="168" y="494" type="curve" smooth="yes"/>
    </contour>
    <contour>
      <point x="241" y="541"/>
      <point x="234" y="531"/>
      <point x="224" y="516" type="curve" smooth="yes"/>
      <point x="180" y="454"/>
      <point x="150" y="379"/>
      <point x="131" y="291" type="curve" smooth="yes"/>
      <point x="120" y="242"/>
      <point x="117" y="178"/>
      <point x="132" y="77" type="curve"/>
      <point x="53" y="78" type="line" smooth="yes"/>
      <point x="40" y="78"/>
      <point x="27" y="68"/>
      <point x="25" y="55" type="curve" smooth="yes"/>
      <point x="18" y="25" type="line" smooth="yes"/>
      <point x="15" y="11"/>
      <point x="23" y="2"/>
      <point x="36" y="2" type="curve" smooth="yes"/>
      <point x="190" y="0" type="line" smooth="yes"/>
      <point x="203" y="0"/>
      <point x="215" y="10"/>
      <point x="218" y="23" type="curve"/>
      <point x="223" y="50" type="line"/>
      <point x="202" y="126"/>
      <point x="199" y="210"/>
      <point x="217" y="295" type="curve" smooth="yes"/>
      <point x="235" y="379"/>
      <point x="270" y="457"/>
      <point x="311" y="516" type="curve" smooth="yes"/>
      <point x="316" y="530"/>
      <point x="308" y="541"/>
      <point x="289" y="541" type="curve"/>
      <point x="261" y="541" type="line"/>
    </contour>
    <contour>
      <point x="370" y="260" type="move" name="center"/>
    </contour>
    <contour>
      <point x="423" y="520" type="move" name="top"/>
    </contour>
    <contour>
      <point x="-30" y="0" type="move" name="bottomleft"/>
    </contour>
    <contour>
      <point x="81" y="520" type="move" name="topleft"/>
    </contour>
    <contour>
      <point x="316" y="0" type="move" name="bottom"/>
    </contour>
  </outline>
</glyph>
<glyph name="gereshhebrew" format="1">
  <advance width="227"/>
  <unicode hex="05F3"/>
  <outline>
    <contour>
      <point x="141" y="411" type="line" smooth="yes"/>
      <point x="158" y="411"/>
      <point x="166" y="420"/>
      <point x="175" y="433" type="curve" smooth="yes"/>
      <point x="256" y="568" type="line" smooth="yes"/>
      <point x="259" y="574"/>
      <point x="261" y="580"/>
      <point x="262" y="584" type="curve" smooth="yes"/>
      <point x="264" y="593"/>
      <point x="259" y="601"/>
      <point x="250" y="601" type="curve" smooth="yes"/>
      <point x="186" y="601" type="line" smooth="yes"/>
      <point x="168" y="601"/>
      <point x="156" y="588"/>
      <point x="151" y="572" type="curve"/>
      <point x="100" y="432" type="line"/>
      <point x="95" y="420"/>
      <point x="99" y="411"/>
      <point x="110" y="411" type="curve" smooth="yes"/>
    </contour>
  </outline>
</glyph>
<glyph name="gershayimhebrew" format="1">
  <advance width="384"/>
  <unicode hex="05F4"/>
  <outline>
    <contour>
      <point x="298" y="411" type="line" smooth="yes"/>
      <point x="315" y="411"/>
      <point x="323" y="420"/>
      <point x="332" y="433" type="curve" smooth="yes"/>
      <point x="413" y="568" type="line" smooth="yes"/>
      <point x="416" y="574"/>
      <point x="418" y="580"/>
      <point x="419" y="584" type="curve" smooth="yes"/>
      <point x="421" y="593"/>
      <point x="416" y="601"/>
      <point x="407" y="601" type="curve" smooth="yes"/>
      <point x="343" y="601" type="line" smooth="yes"/>
      <point x="325" y="601"/>
      <point x="313" y="588"/>
      <point x="308" y="572" type="curve"/>
      <point x="257" y="432" type="line"/>
      <point x="252" y="420"/>
      <point x="256" y="411"/>
      <point x="267" y="411" type="curve" smooth="yes"/>
    </contour>
    <contour>
      <point x="141" y="411" type="line" smooth="yes"/>
      <point x="158" y="411"/>
      <point x="166" y="420"/>
      <point x="175" y="433" type="curve" smooth="yes"/>
      <point x="256" y="568" type="line" smooth="yes"/>
      <point x="259" y="574"/>
      <point x="261" y="580"/>
      <point x="262" y="584" type="curve" smooth="yes"/>
      <point x="264" y="593"/>
      <point x="259" y="601"/>
      <point x="250" y="601" type="curve" smooth="yes"/>
      <point x="186" y="601" type="line" smooth="yes"/>
      <point x="168" y="601"/>
      <point x="156" y="588"/>
      <point x="151" y="572" type="curve"/>
      <point x="100" y="432" type="line"/>
      <point x="95" y="420"/>
      <point x="99" y="411"/>
      <point x="110" y="411" type="curve" smooth="yes"/>
    </contour>
  </outline>
</glyph>
<glyph name="twothirds" format="1">
  <advance width="831"/>
  <unicode hex="2154"/>
  <outline>
    <contour>
      <point x="58" y="31" type="line" smooth="yes"/>
      <point x="54" y="27"/>
      <point x="52" y="22"/>
      <point x="52" y="20" type="curve" smooth="yes"/>
      <point x="49" y="8"/>
      <point x="58" y="0"/>
      <point x="72" y="0" type="curve" smooth="yes"/>
      <point x="110" y="0" type="line" smooth="yes"/>
      <point x="129" y="0"/>
      <point x="138" y="7"/>
      <point x="150" y="19" type="curve" smooth="yes"/>
      <point x="782" y="669" type="line" smooth="yes"/>
      <point x="786" y="673"/>
      <point x="788" y="678"/>
      <point x="788" y="680" type="curve" smooth="yes"/>
      <point x="791" y="692"/>
      <point x="782" y="700"/>
      <point x="768" y="700" type="curve" smooth="yes"/>
      <point x="730" y="700" type="line" smooth="yes"/>
      <point x="711" y="700"/>
      <point x="702" y="693"/>
      <point x="690" y="681" type="curve" smooth="yes"/>
    </contour>
    <contour>
      <point x="773" y="324" type="line" smooth="yes"/>
      <point x="776" y="337"/>
      <point x="769" y="346"/>
      <point x="756" y="346" type="curve" smooth="yes"/>
      <point x="549" y="346" type="line" smooth="yes"/>
      <point x="536" y="346"/>
      <point x="525" y="337"/>
      <point x="522" y="324" type="curve" smooth="yes"/>
      <point x="516" y="296" type="line" smooth="yes"/>
      <point x="513" y="283"/>
      <point x="520" y="274"/>
      <point x="533" y="274" type="curve" smooth="yes"/>
      <point x="652" y="274" type="line"/>
      <point x="565" y="202" type="line" smooth="yes"/>
      <point x="557" y="195"/>
      <point x="550" y="188"/>
      <point x="548" y="178" type="curve" smooth="yes"/>
      <point x="545" y="162" type="line" smooth="yes"/>
      <point x="542" y="149"/>
      <point x="549" y="140"/>
      <point x="562" y="140" type="curve" smooth="yes"/>
      <point x="609" y="140" type="line" smooth="yes"/>
      <point x="647" y="140"/>
      <point x="666" y="127"/>
      <point x="661" y="103" type="curve" smooth="yes"/>
      <point x="656" y="77"/>
      <point x="628" y="63"/>
      <point x="586" y="63" type="curve" smooth="yes"/>
      <point x="549" y="63"/>
      <point x="542" y="72"/>
      <point x="536" y="82" type="curve" smooth="yes"/>
      <point x="532" y="89"/>
      <point x="527" y="94"/>
      <point x="518" y="94" type="curve" smooth="yes"/>
      <point x="466" y="94" type="line" smooth="yes"/>
      <point x="454" y="94"/>
      <point x="447" y="88"/>
      <point x="448" y="75" type="curve" smooth="yes"/>
      <point x="452" y="29"/>
      <point x="516" y="-9"/>
      <point x="584" y="-9" type="curve" smooth="yes"/>
      <point x="676" y="-9"/>
      <point x="725" y="40"/>
      <point x="738" y="103" type="curve" smooth="yes"/>
      <point x="750" y="159"/>
      <point x="717" y="194"/>
      <point x="670" y="203" type="curve"/>
      <point x="745" y="266" type="line" smooth="yes"/>
      <point x="762" y="280"/>
      <point x="765" y="288"/>
      <point x="769" y="303" type="curve" smooth="yes"/>
    </contour>
    <contour>
      <point x="44" y="372" type="line" smooth="yes"/>
      <point x="41" y="359"/>
      <point x="47" y="350"/>
      <point x="60" y="350" type="curve" smooth="yes"/>
      <point x="304" y="350" type="line" smooth="yes"/>
      <point x="317" y="350"/>
      <point x="328" y="359"/>
      <point x="331" y="372" type="curve" smooth="yes"/>
      <point x="337" y="400" type="line" smooth="yes"/>
      <point x="340" y="413"/>
      <point x="333" y="422"/>
      <point x="320" y="422" type="curve" smooth="yes"/>
      <point x="198" y="422" type="line"/>
      <point x="313" y="488"/>
      <point x="347" y="522"/>
      <point x="361" y="588" type="curve" smooth="yes"/>
      <point x="374" y="650"/>
      <point x="330" y="705"/>
      <point x="254" y="705" type="curve" smooth="yes"/>
      <point x="171" y="705"/>
      <point x="121" y="646"/>
      <point x="107" y="603" type="curve" smooth="yes"/>
      <point x="104" y="591"/>
      <point x="109" y="584"/>
      <point x="121" y="584" type="curve" smooth="yes"/>
      <point x="155" y="584" type="line" smooth="yes"/>
      <point x="165" y="584"/>
      <point x="172" y="587"/>
      <point x="183" y="602" type="curve"/>
      <point x="196" y="617"/>
      <point x="211" y="633"/>
      <point x="249" y="633" type="curve" smooth="yes"/>
      <point x="278" y="633"/>
      <point x="291" y="614"/>
      <point x="287" y="593" type="curve" smooth="yes"/>
      <point x="276" y="543"/>
      <point x="223" y="512"/>
      <point x="77" y="430" type="curve" smooth="yes"/>
      <point x="55" y="417"/>
      <point x="50" y="406"/>
      <point x="48" y="396" type="curve" smooth="yes"/>
    </contour>
  </outline>
</glyph>
<glyph name="fiveeighths" format="1">
  <advance width="809"/>
  <unicode hex="215D"/>
  <outline>
    <contour>
      <point x="44" y="31" type="line" smooth="yes"/>
      <point x="40" y="27"/>
      <point x="38" y="22"/>
      <point x="38" y="20" type="curve" smooth="yes"/>
      <point x="35" y="8"/>
      <point x="44" y="0"/>
      <point x="58" y="0" type="curve" smooth="yes"/>
      <point x="96" y="0" type="line" smooth="yes"/>
      <point x="115" y="0"/>
      <point x="124" y="7"/>
      <point x="136" y="19" type="curve" smooth="yes"/>
      <point x="768" y="669" type="line" smooth="yes"/>
      <point x="772" y="673"/>
      <point x="774" y="678"/>
      <point x="774" y="680" type="curve" smooth="yes"/>
      <point x="777" y="692"/>
      <point x="768" y="700"/>
      <point x="754" y="700" type="curve" smooth="yes"/>
      <point x="716" y="700" type="line" smooth="yes"/>
      <point x="697" y="700"/>
      <point x="688" y="693"/>
      <point x="676" y="681" type="curve" smooth="yes"/>
    </contour>
    <contour>
      <point x="722" y="94" type="curve" smooth="yes"/>
      <point x="730" y="129"/>
      <point x="719" y="160"/>
      <point x="692" y="174" type="curve"/>
      <point x="716" y="186"/>
      <point x="736" y="214"/>
      <point x="743" y="246" type="curve" smooth="yes"/>
      <point x="752" y="290"/>
      <point x="720" y="351"/>
      <point x="628" y="351" type="curve" smooth="yes"/>
      <point x="526" y="351"/>
      <point x="490" y="300"/>
      <point x="481" y="256" type="curve" smooth="yes"/>
      <point x="474" y="224"/>
      <point x="482" y="196"/>
      <point x="500" y="184" type="curve"/>
      <point x="467" y="170"/>
      <point x="444" y="139"/>
      <point x="436" y="104" type="curve" smooth="yes"/>
      <point x="426" y="54"/>
      <point x="461" y="-9"/>
      <point x="561" y="-9" type="curve" smooth="yes"/>
      <point x="671" y="-9"/>
      <point x="712" y="44"/>
    </contour>
    <contour>
      <point x="647" y="101" type="curve" smooth="yes"/>
      <point x="641" y="75"/>
      <point x="610" y="58"/>
      <point x="571" y="58" type="curve" smooth="yes"/>
      <point x="532" y="58"/>
      <point x="507" y="75"/>
      <point x="513" y="101" type="curve" smooth="yes"/>
      <point x="518" y="127"/>
      <point x="547" y="145"/>
      <point x="589" y="145" type="curve" smooth="yes"/>
      <point x="631" y="145"/>
      <point x="652" y="127"/>
    </contour>
    <contour>
      <point x="555" y="245" type="curve" smooth="yes"/>
      <point x="559" y="264"/>
      <point x="584" y="284"/>
      <point x="619" y="284" type="curve" smooth="yes"/>
      <point x="654" y="284"/>
      <point x="669" y="264"/>
      <point x="665" y="245" type="curve" smooth="yes"/>
      <point x="661" y="226"/>
      <point x="638" y="207"/>
      <point x="602" y="207" type="curve" smooth="yes"/>
      <point x="566" y="207"/>
      <point x="551" y="226"/>
    </contour>
    <contour>
      <point x="371" y="678" type="line" smooth="yes"/>
      <point x="374" y="691"/>
      <point x="367" y="700"/>
      <point x="354" y="700" type="curve" smooth="yes"/>
      <point x="171" y="700" type="line"/>
      <point x="157" y="699"/>
      <point x="144" y="687"/>
      <point x="140" y="673" type="curve" smooth="yes"/>
      <point x="91" y="523" type="line" smooth="yes"/>
      <point x="87" y="509"/>
      <point x="94" y="497"/>
      <point x="108" y="497" type="curve" smooth="yes"/>
      <point x="151" y="497" type="line" smooth="yes"/>
      <point x="167" y="497"/>
      <point x="172" y="515"/>
      <point x="217" y="515" type="curve" smooth="yes"/>
      <point x="247" y="515"/>
      <point x="271" y="500"/>
      <point x="264" y="467" type="curve" smooth="yes"/>
      <point x="258" y="436"/>
      <point x="232" y="417"/>
      <point x="188" y="417" type="curve" smooth="yes"/>
      <point x="155" y="417"/>
      <point x="147" y="424"/>
      <point x="136" y="441" type="curve" smooth="yes"/>
      <point x="132" y="446"/>
      <point x="129" y="450"/>
      <point x="120" y="450" type="curve" smooth="yes"/>
      <point x="75" y="450" type="line" smooth="yes"/>
      <point x="62" y="450"/>
      <point x="53" y="444"/>
      <point x="54" y="431" type="curve" smooth="yes"/>
      <point x="56" y="395"/>
      <point x="88" y="345"/>
      <point x="186" y="345" type="curve" smooth="yes"/>
      <point x="285" y="345"/>
      <point x="328" y="405"/>
      <point x="340" y="463" type="curve" smooth="yes"/>
      <point x="355" y="534"/>
      <point x="305" y="587"/>
      <point x="230" y="587" type="curve" smooth="yes"/>
      <point x="205" y="587"/>
      <point x="200" y="583"/>
      <point x="188" y="577" type="curve"/>
      <point x="205" y="628" type="line"/>
      <point x="338" y="628" type="line" smooth="yes"/>
      <point x="351" y="628"/>
      <point x="362" y="637"/>
      <point x="365" y="650" type="curve" smooth="yes"/>
    </contour>
  </outline>
</glyph>
